Coordinates
version=1
nRows=6
nColumns=36
inDegrees=yes

Units are S.I. units (second, meters, Newtons, ...)
If the header above contains a line with 'inDegrees', this indicates whether rotational values are in degrees (yes) or radians (no).

endheader
time	pelvis_tilt	pelvis_list	pelvis_rotation	pelvis_tx	pelvis_ty	pelvis_tz	hip_flexion_r	hip_adduction_r	hip_rotation_r	knee_angle_r	knee_angle_r_beta	ankle_angle_r	subtalar_angle_r	mtp_angle_r	hip_flexion_l	hip_adduction_l	hip_rotation_l	knee_angle_l	knee_angle_l_beta	ankle_angle_l	subtalar_angle_l	mtp_angle_l	lumbar_extension	lumbar_bending	lumbar_rotation	arm_flex_r	arm_add_r	arm_rot_r	elbow_flex_r	pro_sup_r	arm_flex_l	arm_add_l	arm_rot_l	elbow_flex_l	pro_sup_l
      2.66666670	    -10.07362076	     -1.34782574	      7.21607869	      0.60206790	      0.87098032	      0.07971051	     38.13070736	     -7.80520171	    -10.98628604	     29.70060291	      0.51837331	     -2.61664790	     -2.37980530	     -7.49999987	     39.64671643	     -7.09750783	     -1.72446473	     28.51034397	      0.49759937	     -8.41424580	     -8.67725616	     -7.49999987	    -21.71753183	     -0.77570291	      6.89326009	     -5.38738094	    -21.31286671	     -1.94840827	     57.65827298	     96.57167913	    -14.22656477	    -19.19506990	     -8.97161050	     48.02898756	     90.28765463
      2.68333330	    -11.81634461	     -0.67161942	      6.98334766	      0.60592101	      0.82773101	      0.07802938	     47.35092452	     -8.83626880	     -6.28607920	     43.74275876	      0.76345516	      6.31597980	     -5.91030329	     -7.49999987	     48.00808040	     -6.65112357	     -0.84444939	     40.90705439	      0.71396279	      0.81247270	    -10.65701615	     -7.49999987	    -23.67591105	     -1.67132817	      6.98802718	     -4.92721485	    -21.50272195	     -4.29300278	     61.10614145	     94.06995498	    -11.85949028	    -20.09130710	     -8.01822480	     49.02696304	     87.05374274
      2.70000000	    -13.35679817	      0.17248277	      6.61613321	      0.62138450	      0.79608523	      0.07267861	     56.03500893	     -9.02840676	     -1.82793396	     57.37568476	      1.00139461	     14.03324979	     -8.49036623	     -7.49999987	     55.76539674	     -6.31253095	     -0.52739662	     53.31355702	      0.93049711	      8.68742987	    -12.03813158	     -7.49999987	    -25.96807209	     -2.84821148	      6.40727918	     -3.10650701	    -21.64843826	     -4.78550723	     63.34130671	     88.34899685	     -9.98538618	    -20.55212154	     -8.42017423	     51.48670081	     82.73662555
      2.71666670	    -14.56067420	      0.47809392	      6.60307241	      0.61539388	      0.76161336	      0.08077072	     63.81120332	     -8.13616858	      1.63162310	     69.48416837	      1.21272752	     19.36785773	    -10.55295162	     -7.49999987	     63.59479509	     -6.48085737	      0.02320795	     65.08436618	      1.13593648	     14.39558580	    -12.88932600	     -7.49999987	    -28.95713165	     -3.65903645	      5.54555382	     -0.32569394	    -22.01806040	     -4.82383693	     66.31519126	     86.16860113	     -7.47889098	    -21.76877986	     -8.38500606	     53.79508412	     81.13399281
      2.73333330	    -15.99107906	      0.52953025	      6.49547235	      0.61571804	      0.73459779	      0.08163680	     70.42675056	     -7.19552299	      3.69414901	     78.59910853	      1.37181323	     23.11977201	    -11.56957384	     -7.49999987	     70.46878092	     -6.75244096	      0.63126125	     74.43506083	      1.29913689	     18.24530566	    -13.55687356	     -7.49999987	    -32.22521840	     -4.14389981	      4.81182777	      3.57076407	    -22.68832379	     -5.21805176	     69.11572356	     85.47623096	     -3.75557447	    -22.90611678	     -8.49540511	     56.37063822	     80.92914188
      2.75000000	    -16.99635350	      0.57193733	      5.80581273	      0.64225629	      0.70648773	      0.06884638	     74.96037298	     -6.46091530	      5.19877294	     86.05711660	      1.50198003	     26.60578201	    -11.44441942	     -7.49999987	     75.09226851	     -7.04979134	      1.25340722	     82.33059038	      1.43693988	     21.54292424	    -13.97071940	     -7.49999987	    -35.21161184	     -4.30931475	      4.26083170	      7.43887016	    -23.28752360	     -3.75843236	     70.82202696	     74.70494536	     -0.28570830	    -22.50936005	     -9.16346180	     57.51229362	     76.56799320
